<svg width="34" height="34" viewBox="0 0 34 34" fill="none" xmlns="http://www.w3.org/2000/svg">
<path d="M8.8918 14.5105C13.2602 11.6736 17.4383 9.90485 20.0361 9.61845C20.2302 9.59136 20.4399 9.57588 20.669 9.57975C20.8981 9.57588 21.1078 9.59136 21.302 9.61845C23.8958 9.90098 28.0778 11.6736 32.4462 14.5105C32.6948 14.673 32.9394 14.8356 33.184 14.9981V0.933594H0.597656V21.504C2.39161 19.356 5.33883 16.8171 8.8918 14.5105Z" fill="#008B8A"/>
<path d="M20.669 10.5469C18.1023 11.0461 14.0446 13.1787 9.86644 16.3987C4.95441 20.1877 1.35096 24.3443 0.597656 26.8523V33.691H33.184V17.7765C32.6365 17.3121 32.0618 16.8515 31.4755 16.3987C27.2973 13.1787 23.2357 11.0461 20.669 10.5469Z" fill="#008B8A"/>
</svg>
